<svg width="17" height="32" viewBox="0 0 17 32" fill="none" xmlns="http://www.w3.org/2000/svg">
<path d="M16.1475 15.5686C16.1486 16.085 15.9687 16.5854 15.6392 16.983L4.58924 30.243C4.21412 30.6943 3.67508 30.9782 3.09069 31.032C2.50631 31.0859 1.92446 30.9054 1.47314 30.5303C1.02182 30.1552 0.738005 29.6162 0.684126 29.0318C0.630247 28.4474 0.810718 27.8655 1.18584 27.4142L11.0866 15.5686L1.53944 3.72302C1.35587 3.49696 1.21878 3.23685 1.13605 2.95764C1.05333 2.67843 1.0266 2.38563 1.05741 2.09606C1.08821 1.80648 1.17594 1.52585 1.31556 1.27029C1.45517 1.01474 1.64392 0.789291 1.87094 0.606916C2.09818 0.404526 2.36476 0.251242 2.65399 0.15667C2.94322 0.0620975 3.24887 0.0282784 3.55178 0.0573254C3.85469 0.0863724 4.14833 0.177658 4.41432 0.32547C4.68031 0.473282 4.91291 0.674435 5.09754 0.916319L15.7718 14.1763C16.0492 14.5854 16.1815 15.0756 16.1475 15.5686Z" fill="#121410"/>
</svg>
