<svg width="54" height="54" viewBox="0 0 54 54" fill="none" xmlns="http://www.w3.org/2000/svg">
<path d="M35.36 26.52C35.361 27.0364 35.1812 27.5368 34.8517 27.9344L23.8017 41.1944C23.4266 41.6457 22.8875 41.9295 22.3032 41.9834C21.7188 42.0373 21.1369 41.8568 20.6856 41.4817C20.2343 41.1066 19.9505 40.5675 19.8966 39.9832C19.8427 39.3988 20.0232 38.8169 20.3983 38.3656L30.2991 26.52L20.7519 14.6744C20.5683 14.4483 20.4312 14.1882 20.3485 13.909C20.2658 13.6298 20.2391 13.337 20.2699 13.0474C20.3007 12.7579 20.3884 12.4772 20.528 12.2217C20.6676 11.9661 20.8564 11.7407 21.0834 11.5583C21.3106 11.3559 21.5772 11.2026 21.8665 11.1081C22.1557 11.0135 22.4613 10.9797 22.7642 11.0087C23.0672 11.0378 23.3608 11.129 23.6268 11.2769C23.8928 11.4247 24.1254 11.6258 24.31 11.8677L34.9843 25.1277C35.2617 25.5367 35.394 26.0269 35.36 26.52Z" fill="#121410"/>
</svg>
