<svg width="54" height="54" viewBox="0 0 54 54" fill="none" xmlns="http://www.w3.org/2000/svg">
<path d="M26.52 35.36C26.0036 35.361 25.5032 35.1812 25.1056 34.8517L11.8456 23.8017C11.3943 23.4266 11.1105 22.8875 11.0566 22.3032C11.0027 21.7188 11.1832 21.1369 11.5583 20.6856C11.9334 20.2343 12.4725 19.9505 13.0569 19.8966C13.6412 19.8427 14.2231 20.0232 14.6744 20.3983L26.52 30.2991L38.3656 20.7519C38.5917 20.5683 38.8518 20.4312 39.131 20.3485C39.4102 20.2658 39.703 20.2391 39.9926 20.2699C40.2821 20.3007 40.5628 20.3884 40.8183 20.528C41.0739 20.6676 41.2993 20.8564 41.4817 21.0834C41.6841 21.3106 41.8374 21.5772 41.932 21.8665C42.0265 22.1557 42.0603 22.4613 42.0313 22.7642C42.0023 23.0672 41.911 23.3608 41.7632 23.6268C41.6153 23.8928 41.4142 24.1254 41.1723 24.31L27.9123 34.9843C27.5033 35.2617 27.0131 35.394 26.52 35.36Z" fill="#121410"/>
</svg>
