<svg width="54" height="54" viewBox="0 0 54 54" fill="none" xmlns="http://www.w3.org/2000/svg">
<path d="M26.52 2.21C20.1408 2.14518 13.9968 4.61582 9.43832 9.07896C4.87988 13.5421 2.27998 19.6325 2.21001 26.0117C2.23459 31.0531 3.85633 35.957 6.8423 40.019C9.82828 44.081 14.0248 47.0922 18.8292 48.62C20.0447 48.841 20.4867 48.1117 20.4867 47.4708C20.4867 46.8299 20.4867 45.4155 20.4867 43.4265C13.7241 44.863 12.2876 40.2441 12.2876 40.2441C11.8374 38.7941 10.8804 37.5546 9.59141 36.7523C7.38141 35.2937 9.76821 35.3158 9.76821 35.3158C10.5321 35.4179 11.263 35.6917 11.906 36.1165C12.549 36.5414 13.0874 37.1063 13.481 37.7689C14.1668 38.9581 15.2922 39.8306 16.6148 40.1984C17.9374 40.5663 19.3516 40.4002 20.553 39.7358C20.6766 38.5256 21.2246 37.3982 22.1 36.5534C16.7076 35.9567 11.05 33.9235 11.05 24.7962C11.0018 22.4153 11.8815 20.109 13.5031 18.3651C12.7646 16.321 12.8518 14.0696 13.7462 12.0887C13.7462 12.0887 15.8015 11.4478 20.3762 14.5197C24.3584 13.4585 28.549 13.4585 32.5312 14.5197C37.1722 11.4478 39.1612 12.0887 39.1612 12.0887C40.0556 14.0696 40.1428 16.321 39.4043 18.3651C41.0636 20.0771 41.991 22.3679 41.99 24.752C41.99 33.9014 36.2882 35.9125 30.94 36.5092C31.5256 37.0778 31.978 37.769 32.2646 38.5333C32.5512 39.2975 32.6649 40.1158 32.5975 40.9292V47.4487C32.5975 47.4487 33.0395 48.841 34.255 48.5979C39.0457 47.0606 43.2282 44.0488 46.2049 39.9925C49.1816 35.9362 50.8004 31.043 50.83 26.0117C50.76 19.6325 48.1601 13.5421 43.6017 9.07896C39.0432 4.61582 32.8993 2.14518 26.52 2.21Z" fill="#121410"/>
</svg>
