<svg width="54" height="54" viewBox="0 0 54 54" fill="none" xmlns="http://www.w3.org/2000/svg">
<path d="M38.675 30.94C38.028 33.1907 36.7457 35.2071 34.9819 36.7476C33.218 38.288 31.0473 39.2872 28.73 39.6253C26.9179 39.8882 25.0713 39.7822 23.3011 39.3137C21.531 38.8452 19.8737 38.0239 18.4289 36.899C16.9841 35.7741 15.7814 34.3688 14.8932 32.7676C14.005 31.1663 13.4494 29.4021 13.26 27.5808C13.1132 25.7524 13.3474 23.9134 13.9478 22.1801C14.5481 20.4468 15.5016 18.8569 16.7478 17.511C17.9941 16.165 19.506 15.0923 21.1881 14.3606C22.8701 13.6289 24.6857 13.2541 26.52 13.26C28.2388 13.2624 29.9414 13.5924 31.5367 14.2324C31.7879 14.3452 32.0722 14.3601 32.3338 14.2742C32.5954 14.1884 32.8156 14.008 32.9511 13.7683L36.1335 7.9118C36.202 7.7769 36.2432 7.62981 36.2547 7.47896C36.2662 7.32811 36.2479 7.17646 36.2006 7.03273C36.1534 6.889 36.0783 6.75601 35.9795 6.64139C35.8808 6.52677 35.7604 6.43277 35.6252 6.3648C32.2079 4.8176 28.453 4.16572 24.7142 4.47054C20.9754 4.77535 17.3757 6.02685 14.2542 8.10714C11.1326 10.1874 8.59198 13.0281 6.87151 16.3615C5.15105 19.6949 4.30739 23.4114 4.42 27.1609C4.63779 32.7299 6.92697 38.0169 10.8391 41.9863C14.7513 45.9556 20.0045 48.3214 25.5697 48.62C31.3995 48.8785 37.095 46.8208 41.4133 42.8958C45.7316 38.9708 48.3223 33.4971 48.62 27.6692C48.62 27.2272 48.62 24.6857 48.62 23.2492C48.6143 22.9579 48.4961 22.6801 48.2901 22.4741C48.0841 22.2681 47.8063 22.1499 47.515 22.1442H27.625C27.3319 22.1442 27.0509 22.2606 26.8436 22.4678C26.6364 22.6751 26.52 22.9561 26.52 23.2492V29.8792C26.52 30.1723 26.6364 30.4533 26.8436 30.6605C27.0509 30.8678 27.3319 30.9842 27.625 30.9842H38.675" fill="#121410"/>
</svg>
