<svg width="17" height="32" viewBox="0 0 17 32" fill="none" xmlns="http://www.w3.org/2000/svg">
<path d="M0.680003 15.52C0.678994 15.0036 0.858833 14.5032 1.1883 14.1056L12.2383 0.845601C12.6134 0.394282 13.1525 0.110464 13.7369 0.0565852C14.3212 0.002706 14.9031 0.183179 15.3544 0.558301C15.8057 0.933423 16.0895 1.47247 16.1434 2.05685C16.1973 2.64123 16.0168 3.22308 15.6417 3.6744L5.7409 15.52L15.2881 27.3656C15.4717 27.5917 15.6088 27.8518 15.6915 28.131C15.7742 28.4102 15.8009 28.703 15.7701 28.9926C15.7393 29.2821 15.6516 29.5628 15.512 29.8183C15.3724 30.0739 15.1836 30.2993 14.9566 30.4817C14.7294 30.6841 14.4628 30.8374 14.1736 30.9319C13.8843 31.0265 13.5787 31.0603 13.2758 31.0313C12.9729 31.0022 12.6792 30.911 12.4132 30.7631C12.1472 30.6153 11.9146 30.4142 11.73 30.1723L1.0557 16.9123C0.778314 16.5033 0.646034 16.0131 0.680003 15.52Z" fill="#121410"/>
</svg>
