<svg width="54" height="54" viewBox="0 0 54 54" fill="none" xmlns="http://www.w3.org/2000/svg">
<path d="M17.68 26.52C17.679 26.0036 17.8588 25.5032 18.1883 25.1056L29.2383 11.8456C29.6134 11.3943 30.1525 11.1105 30.7369 11.0566C31.3212 11.0027 31.9031 11.1832 32.3544 11.5583C32.8057 11.9334 33.0895 12.4725 33.1434 13.0568C33.1973 13.6412 33.0168 14.2231 32.6417 14.6744L22.7409 26.52L32.2881 38.3656C32.4717 38.5917 32.6088 38.8518 32.6915 39.131C32.7742 39.4102 32.8009 39.703 32.7701 39.9926C32.7393 40.2821 32.6516 40.5628 32.512 40.8183C32.3724 41.0739 32.1836 41.2993 31.9566 41.4817C31.7294 41.6841 31.4628 41.8374 31.1736 41.9319C30.8843 42.0265 30.5787 42.0603 30.2758 42.0313C29.9729 42.0022 29.6792 41.911 29.4132 41.7631C29.1472 41.6153 28.9146 41.4142 28.73 41.1723L18.0557 27.9123C17.7783 27.5033 17.646 27.0131 17.68 26.52Z" fill="#121410"/>
</svg>
