<svg width="54" height="54" viewBox="0 0 54 54" fill="none" xmlns="http://www.w3.org/2000/svg">
<path d="M33.4815 18.564C31.7877 18.5582 30.1093 18.8864 28.5424 19.5299C26.9756 20.1734 25.551 21.1196 24.3502 22.3143C23.1494 23.5089 22.1959 24.9286 21.5443 26.4922C20.8928 28.0557 20.5559 29.7323 20.553 31.4262V44.421C20.553 44.9485 20.7626 45.4544 21.1356 45.8274C21.5086 46.2004 22.0145 46.41 22.542 46.41H27.183C27.7105 46.41 28.2164 46.2004 28.5894 45.8274C28.9625 45.4544 29.172 44.9485 29.172 44.421V31.4262C29.1716 30.8238 29.2981 30.228 29.5434 29.6777C29.7886 29.1275 30.1471 28.6351 30.5954 28.2326C31.0437 27.8302 31.5718 27.5267 32.1452 27.3421C32.7187 27.1574 33.3246 27.0957 33.9235 27.1609C34.9976 27.2962 35.9847 27.8209 36.6975 28.6357C37.4104 29.4504 37.7995 30.4984 37.791 31.5809V44.421C37.791 44.9485 38.0006 45.4544 38.3736 45.8274C38.7466 46.2004 39.2525 46.41 39.78 46.41H44.421C44.9485 46.41 45.4544 46.2004 45.8274 45.8274C46.2005 45.4544 46.41 44.9485 46.41 44.421V31.4262C46.4071 29.7323 46.0702 28.0557 45.4187 26.4922C44.7671 24.9286 43.8137 23.5089 42.6129 22.3143C41.412 21.1196 39.9874 20.1734 38.4206 19.5299C36.8537 18.8864 35.1754 18.5582 33.4815 18.564Z" fill="#121410"/>
<path d="M14.586 20.553H8.61901C7.52051 20.553 6.63 21.4435 6.63 22.542V44.421C6.63 45.5195 7.52051 46.41 8.61901 46.41H14.586C15.6845 46.41 16.575 45.5195 16.575 44.421V22.542C16.575 21.4435 15.6845 20.553 14.586 20.553Z" fill="#121410"/>
<path d="M11.6025 16.575C14.3487 16.575 16.575 14.3487 16.575 11.6025C16.575 8.85626 14.3487 6.63 11.6025 6.63C8.85627 6.63 6.63 8.85626 6.63 11.6025C6.63 14.3487 8.85627 16.575 11.6025 16.575Z" fill="#121410"/>
</svg>
