<svg width="54" height="54" viewBox="0 0 54 54" fill="none" xmlns="http://www.w3.org/2000/svg">
<path d="M38.454 48.62C29.4312 48.6083 20.7813 45.0188 14.4012 38.6388C8.02116 32.2587 4.43169 23.6088 4.42 14.586C4.42 11.8898 5.49106 9.30405 7.39755 7.39755C9.30405 5.49106 11.8898 4.42 14.586 4.42C15.1569 4.41565 15.7269 4.46747 16.2877 4.5747C16.8298 4.65492 17.3628 4.78816 17.8789 4.9725C18.2419 5.09986 18.5653 5.31976 18.8173 5.61046C19.0692 5.90117 19.2409 6.25259 19.3154 6.63L22.3431 19.89C22.4247 20.2499 22.4149 20.6246 22.3145 20.9797C22.2141 21.3349 22.0264 21.6592 21.7685 21.9232C21.4812 22.2326 21.4591 22.2547 18.7408 23.6691C20.9176 28.4446 24.737 32.2796 29.5035 34.476C30.94 31.7356 30.9621 31.7135 31.2715 31.4262C31.5355 31.1683 31.8598 30.9806 32.215 30.8802C32.5701 30.7798 32.9448 30.77 33.3047 30.8516L46.5647 33.8793C46.93 33.9641 47.2678 34.1404 47.5461 34.3917C47.8245 34.643 48.0343 34.961 48.1559 35.3158C48.3424 35.8404 48.4829 36.3802 48.5758 36.9291C48.6647 37.4845 48.7091 38.0462 48.7084 38.6087C48.6676 41.2934 47.5665 43.8529 45.6453 45.7285C43.7241 47.6042 41.1389 48.6437 38.454 48.62Z" fill="#121410"/>
</svg>
