<svg width="54" height="54" viewBox="0 0 54 54" fill="none" xmlns="http://www.w3.org/2000/svg">
<path d="M39.78 33.15C38.0438 33.1514 36.3775 33.8338 35.139 35.0506L17.68 27.2714C17.68 27.0062 17.68 26.7852 17.68 26.52C17.68 26.2548 17.68 26.0338 17.68 25.7907L35.139 17.9894C36.2325 19.0613 37.6634 19.7216 39.1886 19.8582C40.7137 19.9948 42.2392 19.5992 43.5058 18.7387C44.7724 17.8782 45.7021 16.6058 46.137 15.1376C46.5719 13.6694 46.4851 12.0959 45.8915 10.6844C45.2979 9.27284 44.234 8.11032 42.8804 7.39424C41.5269 6.67816 39.9673 6.45267 38.4663 6.75607C36.9654 7.05947 35.6158 7.87306 34.6467 9.05865C33.6776 10.2442 33.1488 11.7287 33.15 13.26V14.0114L15.691 21.7906C14.7592 20.8751 13.5777 20.2553 12.2948 20.009C11.012 19.7626 9.68491 19.9007 8.48027 20.406C7.27564 20.9112 6.24709 21.761 5.52375 22.8488C4.80042 23.9365 4.41453 25.2137 4.41453 26.52C4.41453 27.8263 4.80042 29.1035 5.52375 30.1912C6.24709 31.279 7.27564 32.1288 8.48027 32.634C9.68491 33.1393 11.012 33.2774 12.2948 33.031C13.5777 32.7847 14.7592 32.1649 15.691 31.2494L33.15 39.0507V39.78C33.15 41.0913 33.5388 42.3731 34.2674 43.4634C34.9959 44.5537 36.0313 45.4035 37.2428 45.9053C38.4543 46.4071 39.7874 46.5384 41.0734 46.2826C42.3595 46.0268 43.5409 45.3953 44.4681 44.4681C45.3953 43.5409 46.0268 42.3595 46.2826 41.0734C46.5384 39.7874 46.4071 38.4543 45.9053 37.2428C45.4035 36.0313 44.5537 34.9959 43.4634 34.2674C42.3731 33.5388 41.0913 33.15 39.78 33.15Z" fill="#121410"/>
</svg>
