<svg width="54" height="54" viewBox="0 0 54 54" fill="none" xmlns="http://www.w3.org/2000/svg">
<path d="M41.99 40.28H11.05C9.82945 40.28 8.84 41.2695 8.84 42.49C8.84 43.7106 9.82945 44.7 11.05 44.7H41.99C43.2105 44.7 44.2 43.7106 44.2 42.49C44.2 41.2695 43.2105 40.28 41.99 40.28Z" fill="#EDECED"/>
<path d="M8.84 38.07V42.49C8.84 43.7106 9.82945 44.7 11.05 44.7C12.2705 44.7 13.26 43.7106 13.26 42.49V38.07C13.26 36.8495 12.2705 35.86 11.05 35.86C9.82945 35.86 8.84 36.8495 8.84 38.07Z" fill="#EDECED"/>
<path d="M39.78 38.07V42.49C39.78 43.7106 40.7694 44.7 41.99 44.7C43.2105 44.7 44.2 43.7106 44.2 42.49V38.07C44.2 36.8495 43.2105 35.86 41.99 35.86C40.7694 35.86 39.78 36.8495 39.78 38.07Z" fill="#EDECED"/>
<path d="M26.52 33.65C26.0618 33.6535 25.6139 33.5145 25.2382 33.2522L16.3982 27.02C15.9218 26.682 15.5985 26.1691 15.4991 25.5935C15.3997 25.0179 15.5323 24.4263 15.8678 23.9481C16.0353 23.7091 16.2485 23.5056 16.495 23.3494C16.7416 23.1932 17.0166 23.0874 17.3043 23.0381C17.5919 22.9888 17.8865 22.997 18.171 23.0621C18.4555 23.1273 18.7243 23.2481 18.9618 23.4177L26.52 28.6996L34.034 23.042C34.5029 22.6903 35.0923 22.5393 35.6725 22.6222C36.2528 22.7051 36.7763 23.0151 37.128 23.484C37.4797 23.9529 37.6307 24.5423 37.5478 25.1225C37.4649 25.7028 37.1549 26.2263 36.686 26.578L27.846 33.208C27.4635 33.4949 26.9982 33.65 26.52 33.65Z" fill="#EDECED"/>
<path d="M26.52 29.23C25.9339 29.23 25.3718 28.9972 24.9573 28.5827C24.5428 28.1683 24.31 27.6061 24.31 27.02V9.34C24.31 8.75387 24.5428 8.19175 24.9573 7.77729C25.3718 7.36284 25.9339 7.13 26.52 7.13C27.1061 7.13 27.6683 7.36284 28.0827 7.77729C28.4972 8.19175 28.73 8.75387 28.73 9.34V27.02C28.73 27.6061 28.4972 28.1683 28.0827 28.5827C27.6683 28.9972 27.1061 29.23 26.52 29.23Z" fill="#EDECED"/>
</svg>
